<svg width="255" height="156" viewBox="0 0 255 156" fill="none" xmlns="http://www.w3.org/2000/svg">
<g clip-path="url(#clip0_92_3)">
<path opacity="0.18" d="M98.1532 4.98767C71.159 13.0349 48.4708 30.059 40.2711 50.2223C37.9153 56.0227 36.6523 62.0037 33.9234 67.751C30.887 74.1251 26.0705 80.0795 22.7396 86.3951C12.6422 105.385 17.7073 127.078 33.714 142.402C45.7747 153.944 63.6072 158.555 83.9461 154.619C93.965 152.685 102.59 148.351 112.301 146.083C125.697 142.954 140.833 143.252 154.517 142.965C169.804 142.641 201.837 138.184 217.176 137.122C240.696 135.486 239.57 95.8712 234.413 85.8852C229.257 75.8992 221.221 66.917 215.436 57.1328C208.748 45.8295 204.998 33.4054 195.646 23.2122C181.328 7.60103 154.517 -0.897722 127.758 0.074323C117.638 0.467404 107.652 2.12465 98.1532 4.98767V4.98767Z" fill="#FFE69A"/>
<path d="M126.659 140.336C180.532 140.336 224.205 136.754 224.205 132.336C224.205 127.918 180.532 124.337 126.659 124.337C72.7862 124.337 29.1135 127.918 29.1135 132.336C29.1135 136.754 72.7862 140.336 126.659 140.336Z" fill="url(#paint0_linear_92_3)"/>
<path d="M153.234 103.839H116.274L109.553 80.6054H146.514L153.234 103.839Z" fill="#FFE69A"/>
<path d="M151.049 103.839H116.274L109.553 80.6054H144.328L151.049 103.839Z" fill="url(#paint1_linear_92_3)"/>
<path d="M202.197 102.994H70.3868V131.497H202.197V102.994Z" fill="#FFE69A"/>
<path d="M202.197 102.994H70.3868V131.497H202.197V102.994Z" fill="url(#paint2_linear_92_3)"/>
<path d="M180.458 20.4183H72.867C66.5169 20.4183 61.3691 24.5966 61.3691 29.751V78.5869C61.3691 83.7412 66.5169 87.9196 72.867 87.9196H180.458C186.808 87.9196 191.956 83.7412 191.956 78.5869V29.751C191.956 24.5966 186.808 20.4183 180.458 20.4183Z" fill="#FFE69A"/>
<path d="M191.956 74.5288V78.5816C191.952 81.0559 190.74 83.4281 188.584 85.1777C186.429 86.9273 183.506 87.9115 180.458 87.9143H72.8605C69.811 87.9143 66.8865 86.9311 64.7302 85.1808C62.574 83.4306 61.3626 81.0568 61.3626 78.5816V74.5288H191.956Z" fill="url(#paint3_linear_92_3)"/>
<path opacity="0.1" d="M176.649 66.1788V92.4505H148.634C147.858 92.4505 147.114 92.2004 146.566 91.7551C146.017 91.3098 145.709 90.7059 145.709 90.0762V68.5531C145.709 67.9234 146.017 67.3195 146.566 66.8742C147.114 66.4289 147.858 66.1788 148.634 66.1788H176.649Z" fill="#020202"/>
<path d="M104.141 88.5146H125.023C125.202 88.5146 125.379 88.5431 125.544 88.5987C125.709 88.6542 125.859 88.7356 125.986 88.8382C126.112 88.9408 126.212 89.0625 126.281 89.1966C126.349 89.3306 126.384 89.4743 126.384 89.6194C126.384 89.7645 126.349 89.9082 126.281 90.0422C126.212 90.1762 126.112 90.298 125.986 90.4006C125.859 90.5032 125.709 90.5846 125.544 90.6401C125.379 90.6957 125.202 90.7242 125.023 90.7242H104.141C103.962 90.7242 103.785 90.6957 103.62 90.6401C103.455 90.5846 103.305 90.5032 103.179 90.4006C103.052 90.298 102.952 90.1762 102.883 90.0422C102.815 89.9082 102.78 89.7645 102.78 89.6194C102.78 89.3264 102.923 89.0454 103.179 88.8382C103.434 88.631 103.78 88.5146 104.141 88.5146Z" fill="#473F47"/>
<path d="M107.518 82.6026L106.896 85.9331L108.617 86.0924L110.495 82.5707L107.518 82.6026Z" fill="#FCBDBA"/>
<path d="M109.134 85.6037C109.051 85.5493 108.978 85.4848 108.918 85.4125C108.83 85.4571 108.731 85.4855 108.628 85.4955C108.526 85.5056 108.421 85.4972 108.323 85.4709L107.459 85.3541C107.307 85.3393 107.159 85.3052 107.02 85.2532H106.962L106.778 85.54C106.465 86.0524 106.28 86.6104 106.235 87.1813C107.87 87.4957 109.55 87.6262 111.228 87.5691C111.363 87.5841 111.499 87.5698 111.625 87.5278C111.75 87.4858 111.859 87.4176 111.942 87.33C111.974 87.2706 111.99 87.2064 111.99 87.1415C111.99 87.0765 111.974 87.0123 111.942 86.9529C111.862 86.8183 111.751 86.6978 111.614 86.5984C111.477 86.499 111.317 86.4227 111.143 86.3739C110.698 86.2252 110.247 86.0977 109.834 85.9277C109.584 85.846 109.348 85.737 109.134 85.6037Z" fill="#FFE69A"/>
<path d="M119.061 83.6171L118.525 86.9582L120.252 87.0857L122.039 83.5375L119.061 83.6171Z" fill="#FCBDBA"/>
<path opacity="0.1" d="M177.742 37.0705V47.3806C177.742 48.7358 177.079 50.0355 175.898 50.9938C174.717 51.9521 173.116 52.4904 171.447 52.4904H134.584L119.644 66.439V31.9606H171.447C172.273 31.9606 173.092 32.0928 173.856 32.3496C174.619 32.6064 175.313 32.9828 175.898 33.4573C176.483 33.9318 176.946 34.4951 177.263 35.115C177.579 35.735 177.742 36.3995 177.742 37.0705Z" fill="#020202"/>
<path d="M169.928 27.5732H128.243C124.766 27.5732 121.947 29.8609 121.947 32.683V42.9931C121.947 45.8152 124.766 48.103 128.243 48.103H169.928C173.405 48.103 176.224 45.8152 176.224 42.9931V32.683C176.224 29.8609 173.405 27.5732 169.928 27.5732Z" fill="white"/>
<path opacity="0.1" d="M129.264 45.5586C129.052 45.574 128.839 45.5485 128.642 45.4843C128.323 45.3041 128.105 45.0293 128.033 44.7194C127.006 42.1432 124.879 39.6361 121.686 38.8765C120.855 41.6227 120.913 44.491 120.979 47.3221C120.979 48.0764 121.084 48.9422 121.83 49.3884C122.316 49.632 122.882 49.7505 123.453 49.7283C127.074 49.84 130.672 49.2175 133.923 47.9171C134.898 47.524 136.907 45.9889 135.035 45.4896C134.473 45.3356 133.229 45.5693 132.627 45.5693L129.264 45.5586Z" fill="#020202"/>
<path d="M107.367 59.4223L109.932 70.9965L107.367 83.4472L111.523 83.7074L117.576 69.6845L115.528 58.5724L107.367 59.4223Z" fill="#473F47"/>
<path d="M121.712 58.5724L126.325 73.9817L122.595 84.5892L118.898 84.4352L119.415 75.384L112.903 60.7502L121.712 58.5724Z" fill="#473F47"/>
<path d="M134.414 45.7924C134.969 45.5293 135.562 45.324 136.181 45.1815C136.278 45.1463 136.384 45.1308 136.49 45.1364C136.596 45.1419 136.699 45.1684 136.789 45.2134C136.885 45.2864 136.948 45.3838 136.966 45.4896C137.062 45.8297 137.028 46.1855 136.868 46.5094C137.565 46.823 138.297 47.0826 139.054 47.285C139.211 47.3068 139.362 47.3549 139.496 47.4262C139.63 47.4975 139.745 47.5905 139.832 47.6993C139.879 47.813 139.883 47.9355 139.843 48.051C139.804 48.1665 139.722 48.2697 139.61 48.3473C139.381 48.5013 139.105 48.6022 138.811 48.6394C136.914 49.0006 133.825 48.6394 133.373 46.7963C133.275 46.3926 133.458 46.3235 133.851 46.0951C134.06 45.9836 134.25 45.888 134.414 45.7924Z" fill="#FCBDBA"/>
<path d="M120.154 31.5729C120.586 32.2757 120.862 33.0343 120.972 33.8144C121.023 34.2039 120.948 34.5974 120.754 34.9561C120.56 35.3147 120.254 35.6261 119.866 35.8594C119.63 35.948 119.41 36.0624 119.212 36.1994C118.518 36.7784 119.31 37.8248 118.911 38.5737C118.757 38.8203 118.495 39.0114 118.177 39.1096C117.859 39.2079 117.507 39.2062 117.19 39.1049C116.873 38.9924 116.591 38.8238 116.364 38.6116C116.138 38.3993 115.973 38.1486 115.881 37.8779C115.705 37.334 115.625 36.7723 115.645 36.21L115.573 32.8636C115.482 32.1189 115.626 31.3674 115.992 30.6805C116.242 30.3307 116.605 30.0435 117.043 29.8505C117.48 29.6575 117.975 29.5661 118.472 29.5863C119.513 29.6925 119.807 30.9142 120.154 31.5729Z" fill="#FCBDBA"/>
<path d="M134.538 48.2836C134.538 48.2836 126.633 54.0149 126.064 54.0149C125.494 54.0149 121.98 50.4136 121.98 50.4136L121.712 58.5936C120.736 59.061 119.719 59.4693 118.669 59.8153C116.861 60.4851 114.89 60.8121 112.904 60.7714C109.062 60.4899 107.367 59.4435 107.367 59.4435L109.736 40.231C109.736 40.231 114.212 37.6176 115.744 38.016C116.839 38.1753 117.96 38.1753 119.055 38.016C121.267 37.777 123.524 40.231 123.524 40.231L126.463 48.0658L133.354 46.0792C133.802 46.3065 134.156 46.6388 134.367 47.0323C134.579 47.4257 134.638 47.862 134.538 48.2836Z" fill="white"/>
<path d="M121.025 27.9662C121.076 27.5443 120.954 27.1205 120.678 26.7605C120.148 26.1602 119.061 26.1071 118.171 26.2665C117.56 26.4027 116.967 26.5914 116.405 26.8295C115.991 26.9679 115.539 27.0155 115.096 26.9676C113.921 26.9507 112.782 27.2962 111.909 27.9344C110.705 28.8586 110.423 30.2237 110.299 31.5038C110.168 32.9539 110.953 34.1597 112.138 35.2645C113.139 36.226 114.965 37.1714 116.267 35.9551C116.848 35.3368 117.113 34.5606 117.007 33.7879C116.695 33.762 116.401 33.6574 116.166 33.4887C115.931 33.32 115.767 33.0958 115.698 32.8477C115.653 32.6918 115.662 32.5288 115.725 32.3769C115.787 32.225 115.9 32.0901 116.051 31.9872C116.144 31.9418 116.247 31.9117 116.354 31.8987C116.461 31.8856 116.57 31.8898 116.676 31.911C116.781 31.9322 116.88 31.97 116.967 32.0223C117.054 32.0746 117.127 32.1402 117.183 32.2156C117.221 32.2633 117.25 32.3152 117.268 32.3696C117.457 32.0615 117.596 31.7347 117.681 31.3976C117.831 31.0736 118.335 30.7921 118.662 31.0098C118.852 31.132 118.963 31.4029 119.205 31.3604C119.286 31.3359 119.356 31.2936 119.408 31.2382C119.885 30.8663 120.287 30.4362 120.599 29.9634C120.892 29.4057 121.046 28.8062 121.051 28.1999C121.026 28.1238 121.017 28.0448 121.025 27.9662Z" fill="#FC682D"/>
<path d="M105.489 27.2545C104.657 27.1743 103.814 27.3022 103.074 27.6212C102.334 27.9401 101.731 28.4348 101.347 29.0392C100.437 30.553 101.091 32.3431 101.242 34.0269C101.379 34.6114 101.267 35.2162 100.924 35.7422C100.582 36.2682 100.029 36.6841 99.3573 36.9218C97.8914 37.6389 96.2031 38.1222 95.0317 39.1368C94.1093 39.9707 93.5646 41.0349 93.4873 42.1538C93.4141 42.6203 93.5144 43.0938 93.7752 43.5136C94.0312 43.8242 94.3658 44.0868 94.7569 44.2838C95.8413 44.9201 97.0713 45.3743 98.3749 45.6197C99.6784 45.865 101.029 45.8966 102.348 45.7127C103.663 45.5102 104.88 45.0081 105.857 44.2651C106.834 43.522 107.53 42.5687 107.865 41.5164C108.44 39.2749 107.04 37.0493 106.51 34.7971C106.413 34.5332 106.382 34.2563 106.419 33.9826C106.456 33.7089 106.561 33.444 106.726 33.2036C107.164 32.7255 107.976 32.614 108.611 32.3112C112.046 30.6699 108.009 27.5307 105.489 27.2545Z" fill="#FC682D"/>
<path d="M110.384 29.4216H110.325C109.606 29.4216 109.023 29.8949 109.023 30.4787V30.5265C109.023 31.1103 109.606 31.5835 110.325 31.5835H110.384C111.103 31.5835 111.686 31.1103 111.686 30.5265V30.4787C111.686 29.8949 111.103 29.4216 110.384 29.4216Z" fill="#FFE69A"/>
<path d="M120.75 86.5917C120.668 86.536 120.595 86.4717 120.534 86.4005C120.447 86.4474 120.349 86.4784 120.246 86.4912C120.143 86.5041 120.038 86.4985 119.938 86.4749L119.075 86.3686C118.921 86.355 118.771 86.3227 118.63 86.273H118.571L118.394 86.5652C118.099 87.0847 117.93 87.6456 117.897 88.2171C119.539 88.4999 121.22 88.6035 122.896 88.5252C123.031 88.5386 123.169 88.5219 123.293 88.477C123.418 88.4321 123.525 88.3606 123.603 88.2702C123.635 88.2108 123.652 88.1466 123.652 88.0817C123.652 88.0167 123.635 87.9525 123.603 87.8931C123.522 87.7595 123.408 87.6407 123.269 87.5439C123.129 87.4472 122.967 87.3744 122.792 87.33C122.34 87.1866 121.882 87.0698 121.443 86.8998C121.196 86.8236 120.962 86.7199 120.75 86.5917Z" fill="#FFE69A"/>
<path d="M121.116 90.7242H118.466L116.352 95.3667H105.43L107.544 90.7242H104.894L86.3019 131.497H88.9523L90.7912 127.465H101.694L99.8547 131.497H102.505L104.344 127.465H104.422V127.295L120.959 91.0376V131.497H123.61V90.7242H121.116ZM115.632 96.9496L112.877 102.994H101.949L104.704 96.9496H115.632ZM98.4673 110.648L101.222 104.609H112.164L109.396 110.648H98.4673ZM108.676 112.242L105.921 118.281H94.9924L97.7671 112.21L108.676 112.242ZM91.511 125.914L94.2661 119.87H105.195L102.44 125.914H91.511Z" fill="#FFE69A"/>
<path d="M188.481 63.3529H148.634C147.018 63.3529 145.709 64.4159 145.709 65.7273V87.2451C145.709 88.5564 147.018 89.6194 148.634 89.6194H188.481C190.096 89.6194 191.406 88.5564 191.406 87.2451V65.7273C191.406 64.4159 190.096 63.3529 188.481 63.3529Z" fill="white"/>
<path d="M184.417 85.9915H152.698V66.9861H153.267V85.5241H184.417V85.9915Z" fill="#FFE69A"/>
<path d="M153.071 79.1606L152.77 78.7622L160.767 74.7731L172.526 76.2445L182.918 71.3789L183.206 71.7826L172.638 76.7332L172.539 76.7172L160.891 75.2618L153.071 79.1606Z" fill="#FFE69A"/>
<path d="M161.185 76.0798C161.879 76.0798 162.442 75.6232 162.442 75.06C162.442 74.4967 161.879 74.0401 161.185 74.0401C160.492 74.0401 159.929 74.4967 159.929 75.06C159.929 75.6232 160.492 76.0798 161.185 76.0798Z" fill="#FFE69A"/>
<path d="M172.579 77.5087C173.273 77.5087 173.835 77.0521 173.835 76.4888C173.835 75.9256 173.273 75.469 172.579 75.469C171.885 75.469 171.322 75.9256 171.322 76.4888C171.322 77.0521 171.885 77.5087 172.579 77.5087Z" fill="#FFE69A"/>
<path d="M182.846 72.7547C183.54 72.7547 184.103 72.2981 184.103 71.7348C184.103 71.1716 183.54 70.715 182.846 70.715C182.152 70.715 181.59 71.1716 181.59 71.7348C181.59 72.2981 182.152 72.7547 182.846 72.7547Z" fill="#FFE69A"/>
<path opacity="0.28" d="M161.185 76.0798C161.879 76.0798 162.442 75.6232 162.442 75.06C162.442 74.4967 161.879 74.0401 161.185 74.0401C160.492 74.0401 159.929 74.4967 159.929 75.06C159.929 75.6232 160.492 76.0798 161.185 76.0798Z" fill="#020202"/>
<path opacity="0.28" d="M172.579 77.5087C173.273 77.5087 173.835 77.0521 173.835 76.4888C173.835 75.9256 173.273 75.469 172.579 75.469C171.885 75.469 171.322 75.9256 171.322 76.4888C171.322 77.0521 171.885 77.5087 172.579 77.5087Z" fill="#020202"/>
<path opacity="0.28" d="M182.846 72.7547C183.54 72.7547 184.103 72.2981 184.103 71.7348C184.103 71.1716 183.54 70.715 182.846 70.715C182.152 70.715 181.59 71.1716 181.59 71.7348C181.59 72.2981 182.152 72.7547 182.846 72.7547Z" fill="#020202"/>
<path d="M187.283 96.2059C187.283 96.2059 178.193 110.149 176.492 114.531C174.791 118.914 174.948 131.826 174.948 131.826H179.895C179.895 131.826 179.895 118.797 181.996 116.603C184.096 114.409 195.803 103.212 195.803 103.212L187.283 96.2059Z" fill="#473F47"/>
<path d="M186.275 97.9004C186.275 97.9004 191.785 115.96 194.639 120.002C197.492 124.045 205.292 131.327 205.292 131.327L209.494 129.5C209.494 129.5 198.689 117.995 199.291 114.627C199.894 111.259 201.425 98.3731 201.425 98.3731C201.425 98.3731 193.814 95.0214 186.275 97.9004Z" fill="#473F47"/>
<path d="M204.959 71.9473C204.959 71.9473 209.35 73.7692 207.714 78.1514C206.078 82.5335 200.901 92.4027 201.464 95.3242C202.027 98.2456 201.425 98.3412 201.425 98.3412C201.425 98.3412 189.875 101.719 186.275 97.8844C186.275 97.8844 193.147 78.1514 194.606 75.6867C196.065 73.2221 200.234 70.4919 204.959 71.9473Z" fill="#FFE69A"/>
<path d="M202.681 81.689C202.255 82.7674 201.656 83.7959 200.901 84.7485C200.521 85.3184 200.064 85.8528 199.54 86.3421C198.055 87.6381 195.83 88.1321 193.84 88.8439C193.484 88.9573 193.155 89.1189 192.865 89.3219C192.569 89.5947 192.334 89.9075 192.172 90.2462C191.092 92.1637 189.639 94.1078 187.27 94.9736C188.245 91.9512 189.233 88.9289 190.346 85.9437C190.475 85.3902 190.751 84.866 191.155 84.4075C191.558 83.949 192.079 83.5669 192.682 83.2878C195.169 81.8059 197.636 80.2973 200.149 78.8419C201.006 78.3426 201.903 77.7796 202.629 78.6826C203.264 79.474 202.976 80.8604 202.681 81.689Z" fill="url(#paint4_linear_92_3)"/>
<path d="M196.792 64.2453C196.543 64.4524 196.222 64.6649 196.222 64.9517C196.264 65.1675 196.375 65.3707 196.543 65.5413C197.302 66.6037 196.608 68.091 197.525 69.0524C197.866 69.3813 198.322 69.6184 198.833 69.7323C199.353 69.7893 199.856 69.9206 200.319 70.12C200.67 70.4006 200.87 70.7825 200.875 71.1824C200.927 71.6604 200.823 72.1385 200.875 72.6166C200.862 72.7767 200.9 72.937 200.984 73.0821C201.069 73.2271 201.198 73.3521 201.359 73.4452C201.522 73.5032 201.699 73.5305 201.876 73.5249C202.896 73.5623 203.918 73.4981 204.919 73.3336C205.063 73.3184 205.2 73.2746 205.319 73.2062C205.435 73.0962 205.509 72.9617 205.534 72.8184C205.966 71.2249 206.411 69.6314 206.843 68.0379C207.097 67.4649 207.415 66.912 207.792 66.3859C208.137 65.5908 208.253 64.7424 208.132 63.9053C208.021 63.2786 207.759 62.6758 207.36 62.1312C207.034 61.6174 206.557 61.1761 205.973 60.8458C205.542 60.6396 205.077 60.484 204.592 60.3837C202.917 59.964 200.299 59.401 198.846 60.5696C197.655 61.5469 198.048 63.2307 196.792 64.2453Z" fill="#FCBDBA"/>
<path d="M196.615 66.03C196.975 65.8494 198.14 66.2266 198.578 66.2213C199.959 66.1894 201.085 66.7524 202.19 66.0619C203.094 65.5307 203.453 64.5799 203.768 63.7088C203.774 63.6612 203.774 63.6131 203.768 63.5654C203.755 63.5044 203.726 63.4464 203.683 63.3954C203.172 62.7899 202.132 62.7261 201.255 62.5509C199.691 62.1839 198.285 61.468 197.197 60.4846C196.909 60.2833 196.715 60.0076 196.648 59.7038C196.664 59.5283 196.732 59.3586 196.846 59.2088C196.96 59.0591 197.116 58.9337 197.302 58.8433C198.421 58.2696 199.773 58.0786 201.065 58.3121C202.338 58.5508 203.594 58.8451 204.828 59.1939C206.019 59.4648 207.249 59.6294 208.433 59.9375C208.686 59.9964 208.927 60.086 209.147 60.2031C209.436 60.389 209.662 60.6323 209.801 60.9095C210.011 61.2586 210.12 61.6419 210.12 62.0303C210.12 62.4187 210.011 62.802 209.801 63.1511C209.716 63.2534 209.652 63.3665 209.611 63.4857C209.605 63.6063 209.625 63.7268 209.67 63.8416C209.965 64.904 209.317 65.9663 208.689 66.8852L207.053 69.3605C206.887 69.6592 206.641 69.9241 206.333 70.136C206.177 70.2389 205.984 70.2977 205.783 70.3034C205.582 70.3092 205.385 70.2616 205.22 70.1679C204.88 69.9288 204.86 69.4508 204.461 69.2914C204.326 69.2555 204.183 69.2439 204.041 69.2577C203.9 69.2715 203.764 69.3102 203.643 69.3711C202.923 69.6526 202.334 70.0988 201.628 70.4335C200.406 70.986 198.966 71.129 197.616 70.8318C197.219 70.7522 196.849 70.6036 196.53 70.3963C195.83 69.9076 195.875 69.2543 196.019 68.5903C196.163 67.9263 195.875 66.4019 196.615 66.03Z" fill="#473F47"/>
<path d="M203.938 78.826C203.938 78.826 199.213 88.6898 180.458 90.5755L179.803 88.4508C179.803 88.4508 192.329 84.4298 195.031 80.3504C195.808 79.204 196.479 78.0128 197.04 76.7863C197.891 74.874 200.62 73.8436 202.806 74.8369C204.101 75.4265 204.906 76.595 203.938 78.826Z" fill="#FFE69A"/>
<path d="M176.629 88.0099C176.651 88.2793 176.79 88.5337 177.022 88.727C175.82 89.0911 174.549 89.2816 173.266 89.2901C173.032 89.268 172.797 89.3214 172.611 89.4388C172.363 89.6566 172.559 90.0124 172.788 90.2409C173.763 91.1334 175.11 91.7011 176.571 91.8344C177.522 91.9844 178.508 91.8544 179.352 91.4679C179.934 91.1131 180.426 90.6692 180.798 90.1612C180.874 90.0835 180.931 89.9953 180.968 89.9009C180.996 89.7143 180.941 89.5257 180.811 89.3697C180.661 89.1413 180.451 88.6898 180.157 88.5783C179.862 88.4667 179.456 88.5783 179.155 88.5358C178.292 88.3764 177.519 87.9303 176.629 88.0099Z" fill="#FCBDBA"/>
<path d="M212.975 131.587C213.07 131.642 213.147 131.715 213.2 131.799C213.253 131.883 213.281 131.976 213.281 132.071C213.281 132.165 213.253 132.258 213.2 132.342C213.147 132.426 213.07 132.499 212.975 132.554C210.944 134.33 208.511 135.773 205.809 136.803C205.063 137.085 204.036 137.287 203.525 136.761C203.015 136.235 203.558 135.438 203.99 134.833C204.573 134.02 204.931 133.114 205.037 132.177C205.038 131.856 205.116 131.539 205.266 131.242C205.796 130.451 208.401 129.649 209.481 129.649C210.914 129.638 212.098 130.78 212.975 131.587Z" fill="#FFE69A"/>
<path d="M181.531 134.684C181.582 134.769 181.607 134.863 181.604 134.958C181.601 135.053 181.569 135.145 181.512 135.228C181.454 135.311 181.373 135.381 181.275 135.432C181.177 135.484 181.065 135.515 180.949 135.523C178.1 136.246 175.108 136.516 172.134 136.32C171.309 136.262 170.295 136.023 170.17 135.359C170.046 134.695 171.008 134.222 171.754 133.877C172.751 133.404 173.612 132.765 174.28 132.002C174.474 131.722 174.737 131.478 175.052 131.285C175.995 130.807 178.756 131.141 179.699 131.582C180.942 132.161 181.269 133.627 181.531 134.684Z" fill="#FFE69A"/>
<path d="M58.6206 129.866C58.5927 130.544 58.7467 131.218 59.0722 131.842C59.4826 132.424 60.1011 132.891 60.8456 133.181C62.4407 133.855 64.2952 134.004 66.022 133.595C66.2563 133.557 66.4669 133.454 66.6175 133.303C66.7067 133.176 66.7434 133.029 66.7222 132.883C66.5912 132.11 66.1078 131.405 65.3675 130.907C64.6298 130.42 63.9992 129.834 63.5025 129.176C62.7107 127.869 63.2996 124.395 60.2828 124.969C57.7634 125.431 58.5487 128.422 58.6206 129.866Z" fill="#FBB9AD"/>
<path d="M58.2018 132.209C58.2018 132.209 57.7699 133.069 58.3 133.569C58.83 134.068 64.2551 136.803 67.9066 134.599C71.5582 132.395 62.9462 132.113 62.9462 132.113L58.2018 132.209Z" fill="#FFE69A"/>
<path d="M58.4112 130.222C58.5764 130.155 58.7661 130.138 58.9453 130.175C59.1246 130.212 59.2812 130.3 59.3863 130.424C59.7424 130.753 60.1961 131.004 60.7044 131.152C61.2127 131.299 61.759 131.34 62.2918 131.269C63.4829 131.04 63.954 129.925 64.543 129.919C65.132 129.914 68.2862 132.097 68.4694 133.032C68.6527 133.967 67.0363 134.657 65.2563 134.748C63.4763 134.838 59.4321 133.834 58.6664 133.075C58.3435 132.651 58.1516 132.171 58.1072 131.674C58.0628 131.177 58.1671 130.679 58.4112 130.222Z" fill="white"/>
<path d="M48.2745 131.2C48.2395 131.877 48.3939 132.553 48.726 133.176C49.1366 133.756 49.7552 134.221 50.4995 134.509C52.0922 135.184 53.9447 135.332 55.6693 134.923C55.9064 134.887 56.1198 134.783 56.2713 134.631C56.3575 134.505 56.3941 134.36 56.376 134.217C56.2438 133.444 55.7607 132.739 55.0214 132.241C54.2888 131.751 53.6589 131.168 53.1564 130.514C52.3645 129.213 52.9535 125.734 49.9367 126.307C47.4172 126.775 48.2025 129.771 48.2745 131.2Z" fill="#FBB9AD"/>
<path d="M47.8557 133.553C47.8557 133.553 47.4238 134.408 47.9538 134.907C48.4839 135.406 53.8958 138.142 57.5474 135.943C61.199 133.744 52.6001 133.457 52.6001 133.457L47.8557 133.553Z" fill="#FFE69A"/>
<path d="M48.0651 131.561C48.2312 131.495 48.4211 131.479 48.6 131.517C48.7789 131.555 48.9351 131.644 49.0402 131.768C49.3944 132.099 49.8478 132.351 50.3567 132.499C50.8656 132.647 51.4128 132.686 51.9457 132.612C53.1302 132.379 53.6079 131.269 54.1903 131.263C54.7727 131.258 57.9335 133.436 58.1167 134.371C58.3 135.306 56.6836 135.996 54.9036 136.086C53.1236 136.177 49.086 135.178 48.3203 134.418C47.9958 133.995 47.803 133.513 47.7585 133.015C47.714 132.517 47.8193 132.018 48.0651 131.561Z" fill="white"/>
<path d="M46.1084 95.048C46.1084 95.048 45.5522 120.21 47.8426 128.602L53.6733 129.186L55.2635 94.7983L46.1084 95.048Z" fill="#473F47"/>
<path d="M62.2133 92.3284C62.2133 92.3284 66.853 105.873 63.5221 127.667L57.6914 128.252L54.0202 93.5076L62.2133 92.3284Z" fill="#473F47"/>
<path d="M70.9365 81.4871C70.8711 82.4008 70.5112 83.1869 69.5361 83.4525C69.4527 83.4752 69.3674 83.4929 69.2809 83.5056C67.4944 83.7977 65.1451 82.6929 63.5156 81.7262C62.8325 81.3274 62.1771 80.8983 61.5524 80.4407V70.7043L70.2821 77.9389C70.7347 79.0852 70.9557 80.2835 70.9365 81.4871Z" fill="white"/>
<path d="M63.581 81.6837C63.581 82.1405 63.653 82.5973 63.653 83.0541C63.653 85.5612 62.9397 88.1534 63.8559 90.618C64.1573 91.1415 64.2488 91.7286 64.1176 92.2965C63.8494 92.7523 63.3834 93.1117 62.8088 93.3057C60.08 94.5168 56.9192 94.8993 53.8566 95.2392C51.54 95.5048 48.2549 96.0625 46.115 95.048C45.2053 94.6177 44.8978 93.8157 44.6033 93.0136C43.7846 90.4216 43.3021 87.7673 43.1636 85.0938C43.1636 84.7432 43.0982 84.398 43.0785 84.0315C42.8997 81.6306 42.8386 79.2261 42.8953 76.8181C42.9346 75.0706 43.1047 73.1849 44.5117 71.8676C46.3767 70.1148 49.989 68.9515 52.7375 68.5425C53.626 68.3934 54.5368 68.3522 55.4402 68.4203C56.7195 68.5849 57.9546 68.9262 59.0918 69.4295C60.453 69.9607 61.6636 70.4388 62.3638 71.5277C63.0988 72.7913 63.6121 74.1322 63.8886 75.5115C64.1459 76.8044 64.1811 78.1201 63.9933 79.4209C63.9148 80.0583 63.7119 80.6904 63.6334 81.3225C63.6027 81.4414 63.5852 81.5623 63.581 81.6837Z" fill="white"/>
<path opacity="0.1" d="M50.9576 95.9032C50.061 96.1156 47.9931 95.4464 47.306 95.372C46.8937 95.3136 46.5207 95.1436 46.1084 95.0692C44.0601 94.6549 43.818 89.9806 43.6217 88.7217C43.0916 85.4019 42.2736 81.9599 42.2147 78.6294C42.1227 77.344 42.3065 76.0553 42.7579 74.8209C42.9877 74.2044 43.3818 73.6364 43.9122 73.1572C44.4425 72.6781 45.0963 72.2995 45.827 72.0482C48.4446 71.2833 49.2234 78.0027 49.5833 79.3943C49.9432 80.786 49.989 83.2506 51.1212 84.3661C52.2533 85.4816 54.5175 85.6887 55.9965 85.1257C56.7919 84.8016 57.4537 84.2964 57.9012 83.6719C58.3486 83.0475 58.5622 82.3307 58.5159 81.6093C58.4265 81.1096 58.3763 80.6057 58.3654 80.1008C58.3661 79.8474 58.4557 79.5994 58.6237 79.3858C58.7918 79.1723 59.0313 79.002 59.3143 78.895C59.5813 78.8408 59.8615 78.8479 60.1238 78.9154C60.3861 78.983 60.6201 79.1083 60.7998 79.2775C61.1485 79.6257 61.3987 80.0319 61.5327 80.4673C61.8713 81.3773 62.0906 82.3139 62.1871 83.2613C62.4489 85.5081 62.0301 87.8134 62.691 90.0071C62.9868 90.6892 63.1286 91.4089 63.1099 92.1318C62.9594 92.7299 62.5598 93.2677 61.9782 93.6547C61.3965 94.0417 60.6684 94.2542 59.9164 94.2565C59.162 94.2332 58.4258 94.0621 57.7706 93.7578C57.1153 93.4535 56.5605 93.025 56.1535 92.509C56.0229 92.3243 55.8469 92.1634 55.6366 92.0362C55.4018 91.9405 55.1394 91.8983 54.8774 91.9141C53.6275 91.9141 51.8345 92.1478 51.4287 93.2845C51.1408 94.0972 51.8345 94.878 51.2913 95.7172C51.2114 95.81 51.0929 95.876 50.9576 95.9032Z" fill="#020202"/>
<path d="M58.0382 65.3448C57.8207 65.6972 57.45 65.9716 56.9977 66.115C56.4461 66.2162 55.9209 66.396 55.4468 66.6462C55.0624 66.9843 54.8176 67.4114 54.7466 67.8679L54.3736 69.2808L54.1772 69.9926C54.1517 70.1213 54.0985 70.2453 54.0202 70.3591C53.9097 70.4592 53.773 70.5379 53.6201 70.5893C53.4672 70.6408 53.302 70.6638 53.1367 70.6566C52.447 70.6797 51.7642 70.5374 51.1735 70.2475C51.0702 70.211 50.9849 70.1474 50.9314 70.067C50.8796 69.9681 50.8659 69.8588 50.8921 69.7536L51.1081 67.7192C51.228 67.1629 51.12 66.5901 50.8005 66.0885C50.0793 65.0242 49.5441 63.8836 49.2103 62.6996C49.0935 62.3707 49.0661 62.0252 49.13 61.6869C49.1939 61.3486 49.3475 61.0257 49.5802 60.7403C49.8129 60.4549 50.1192 60.2139 50.4779 60.0341C50.8367 59.8542 51.2392 59.7397 51.6578 59.6985C52.882 59.3933 54.1888 59.3823 55.4206 59.6666C55.8787 59.7941 56.0161 60.049 56.2321 60.3837C56.5527 60.9148 56.8865 61.446 57.1286 61.9772C57.3707 62.5084 57.6979 63.2095 57.9401 63.8469C58.1908 64.3209 58.2256 64.8519 58.0382 65.3448Z" fill="#FBB9AD"/>
<path d="M76.5644 75.5911C76.6429 75.4849 76.7935 75.3787 76.9178 75.4424C76.9685 75.4835 77.0047 75.5348 77.0225 75.5911C77.0943 75.6931 77.1981 75.7779 77.3235 75.8367C77.4488 75.8955 77.5911 75.9262 77.7358 75.9258C78.0172 75.9258 78.3117 75.8886 78.5996 75.8886C78.9759 75.8982 79.3443 75.9785 79.6758 76.1232C80.0074 76.2679 80.2931 76.4731 80.5105 76.7225C80.943 77.2272 81.1842 77.8236 81.2041 78.4382C81.2812 78.9906 81.0937 79.5459 80.6806 79.9892C80.0262 80.6107 78.8417 80.6266 77.8274 80.6001H76.8982C76.6786 80.6235 76.4564 80.5775 76.2774 80.4718C76.0984 80.366 75.9762 80.2085 75.9362 80.0317C75.5566 79.2828 74.8695 78.5338 75.3407 77.7796C75.8118 77.0253 76.0016 76.1223 76.5644 75.5911Z" fill="#FBB9AD"/>
<path d="M58.3 83.5056V77.8752C58.2998 77.6549 58.3815 77.4397 58.5345 77.2577C58.6874 77.0758 58.9045 76.9355 59.1572 76.8553L76.3354 71.3046C77.2254 71.0177 79.0381 71.8782 79.0381 72.6538L78.1939 85.6834C78.1943 85.901 78.1149 86.1137 77.9657 86.2944C77.8165 86.4751 77.6043 86.6156 77.3562 86.698L60.9961 92.8171C60.0996 93.1145 58.2738 92.254 58.2738 91.4732L58.3 83.5056Z" fill="#FFE69A"/>
<path d="M58.3 83.5056V77.8752C58.2937 77.6545 58.3722 77.4377 58.5247 77.255C58.6771 77.0722 58.8959 76.9325 59.1507 76.8553L76.3354 71.3046C77.2254 71.0177 79.0381 71.8782 79.0381 72.6538L78.1939 85.6834C78.1934 85.9008 78.1137 86.1132 77.9646 86.2938C77.8155 86.4743 77.6038 86.615 77.3562 86.698L60.9961 92.8171C60.1061 93.1145 58.2803 92.254 58.2803 91.4732L58.3 83.5056Z" fill="url(#paint5_linear_92_3)"/>
<path d="M59.1572 83.8349V78.2045C59.1566 77.9835 59.2381 77.7674 59.391 77.5846C59.544 77.4017 59.7612 77.2605 60.0145 77.1793L77.1926 71.6339C77.3981 71.5671 77.6206 71.5421 77.8408 71.5612C78.0609 71.5804 78.2718 71.643 78.4552 71.7436C78.6386 71.8443 78.7888 71.9798 78.8927 72.1385C78.9966 72.2972 79.051 72.4741 79.0511 72.6537V86.0287C79.0507 86.246 78.9709 86.4584 78.8218 86.639C78.6727 86.8196 78.461 86.9602 78.2135 87.0432L61.0354 92.833C60.8705 92.8885 60.6936 92.9171 60.515 92.9169C60.3365 92.9168 60.1597 92.888 59.9949 92.8323C59.8301 92.7765 59.6805 92.6948 59.5547 92.5919C59.4289 92.489 59.3294 92.367 59.262 92.2328C59.1923 92.1001 59.1567 91.9573 59.1572 91.8131V83.8349Z" fill="#FFE69A"/>
<path d="M59.1572 78.2045L70.9365 83.1231L78.7239 71.9685C78.7239 71.9685 79.025 71.8251 79.025 72.6537V86.0287L59.1572 91.0429V78.2045Z" fill="url(#paint6_linear_92_3)"/>
<path d="M55.0738 60.2987C54.9538 60.4462 54.7988 60.5729 54.618 60.6714C54.4371 60.7699 54.2339 60.8382 54.0202 60.8723C52.8553 61.0742 52.1486 60.6174 51.5596 61.7169C51.3697 62.0934 51.3108 62.505 51.3895 62.9067C51.3895 62.9917 51.7559 63.9319 51.8475 63.8841C51.5465 64.0594 51.3109 63.5813 50.9837 63.4432C50.6565 63.3051 50.1723 63.7088 50.2508 64.0541C50.3874 64.3931 50.631 64.6971 50.9576 64.9358C51.4807 65.4629 51.769 66.1181 51.7756 66.7949C51.7756 66.949 51.7036 67.1561 51.5073 67.1614C51.3109 67.1667 51.095 66.9436 50.9445 66.8587C50.7048 66.7282 50.4532 66.6128 50.1919 66.5134C49.3935 66.2053 48.1894 66.1097 47.5219 65.6741C47.1779 65.4418 46.9461 65.1182 46.8675 64.7605C46.8675 64.6755 46.8675 63.7619 47.0638 63.8097C46.8656 63.7619 46.6811 63.6824 46.5211 63.576C46.3611 63.4696 46.2288 63.3384 46.1319 63.1901C46.0351 63.0417 45.9756 62.8792 45.9569 62.712C45.9383 62.5448 45.9609 62.3763 46.0233 62.2162C46.1112 61.9913 46.2717 61.7896 46.488 61.6319C45.67 60.7077 46.0495 59.3373 47.0311 58.5246C48.0847 57.7603 49.418 57.2975 50.8267 57.2073C52.357 57.0114 53.9219 57.0949 55.4075 57.4516C55.9229 57.5673 56.3994 57.7761 56.8014 58.0624C56.9978 58.2067 57.1486 58.3873 57.2408 58.5888C57.3331 58.7904 57.3642 59.007 57.3315 59.2204C57.245 59.249 57.1502 59.2567 57.0585 59.2425C56.9667 59.2284 56.882 59.193 56.8145 59.1407C56.9011 59.3323 56.8904 59.544 56.7849 59.7292C56.6794 59.9145 56.4876 60.0582 56.2517 60.1287C56.075 60.1809 55.8832 60.1895 55.7005 60.1536C55.5177 60.1177 55.3521 60.0388 55.2243 59.9269C55.2111 60.0587 55.1596 60.1862 55.0738 60.2987Z" fill="#473F47"/>
<path d="M55.8198 66.4125L55.6235 66.4603C55.5646 66.4652 55.5094 66.4857 55.4664 66.5187C55.4535 66.5551 55.4535 66.5938 55.4664 66.6303C55.082 66.9684 54.8372 67.3955 54.7662 67.8519L54.3932 69.2649C53.7633 68.3617 53.2878 67.3932 52.9797 66.3859C53.9227 66.4744 54.8745 66.4833 55.8198 66.4125Z" fill="#DC9F95"/>
<path d="M56.8145 83.5587C56.9246 83.4489 57.0665 83.3628 57.2274 83.3081C57.3884 83.2535 57.5635 83.2319 57.7372 83.2453C57.9344 83.3258 58.1227 83.42 58.3 83.5269C58.467 83.5873 58.6472 83.6198 58.83 83.6225C59.57 83.6655 60.3128 83.5804 61.0092 83.3728C61.3606 83.2337 61.7441 83.1559 62.1348 83.1444C62.3683 83.1813 62.5893 83.2588 62.7824 83.3716C62.9756 83.4844 63.1364 83.6298 63.2538 83.7977C63.6021 84.2032 63.7979 84.682 63.8177 85.176C63.8374 85.6701 63.6802 86.1581 63.3651 86.5811C63.0727 86.9248 62.6878 87.21 62.2395 87.415C61.2458 87.8374 60.1415 88.0597 59.0198 88.0631C57.9073 88.1056 56.7752 88.0631 55.6693 88.1056C55.4073 88.1444 55.1369 88.1146 54.8971 88.0206C54.7645 87.9205 54.662 87.7972 54.5973 87.66C54.5327 87.5228 54.5076 87.3754 54.5241 87.2291C54.4848 86.5439 54.3408 85.9649 54.8316 85.386C55.4485 84.7463 56.1106 84.1362 56.8145 83.5587Z" fill="#FBB9AD"/>
<path d="M44.5248 71.8729C44.5248 71.8729 32.2285 84.9238 36.1157 89.5344C40.0028 94.145 56.4022 88.7748 56.4022 88.7748L54.8055 84.9557C54.8055 84.9557 43.2879 86.1402 43.2029 85.0938C43.1178 84.0474 50.506 78.0558 50.506 78.0558C50.506 78.0558 51.8279 69.2861 44.5248 71.8729Z" fill="white"/>
</g>
<defs>
<linearGradient id="paint0_linear_92_3" x1="120.22" y1="87.9143" x2="126.657" y2="155.305" gradientUnits="userSpaceOnUse">
<stop offset="0.01"/>
<stop offset="0.08" stop-opacity="0.69"/>
<stop offset="0.21" stop-opacity="0.32"/>
<stop offset="1" stop-opacity="0"/>
</linearGradient>
<linearGradient id="paint1_linear_92_3" x1="129.447" y1="82.7142" x2="131.693" y2="120.661" gradientUnits="userSpaceOnUse">
<stop offset="0.01"/>
<stop offset="0.08" stop-opacity="0.69"/>
<stop offset="0.21" stop-opacity="0.32"/>
<stop offset="1" stop-opacity="0"/>
</linearGradient>
<linearGradient id="paint2_linear_92_3" x1="46.5534" y1="179.839" x2="254.291" y2="-40.0903" gradientUnits="userSpaceOnUse">
<stop offset="0.01"/>
<stop offset="0.08" stop-opacity="0.69"/>
<stop offset="0.21" stop-opacity="0.32"/>
<stop offset="1" stop-opacity="0"/>
</linearGradient>
<linearGradient id="paint3_linear_92_3" x1="106.274" y1="40.725" x2="133.17" y2="114.502" gradientUnits="userSpaceOnUse">
<stop offset="0.01"/>
<stop offset="0.08" stop-opacity="0.69"/>
<stop offset="0.21" stop-opacity="0.32"/>
<stop offset="1" stop-opacity="0"/>
</linearGradient>
<linearGradient id="paint4_linear_92_3" x1="178.71" y1="69.796" x2="209.177" y2="118.281" gradientUnits="userSpaceOnUse">
<stop offset="0.01"/>
<stop offset="0.08" stop-opacity="0.69"/>
<stop offset="0.21" stop-opacity="0.32"/>
<stop offset="1" stop-opacity="0"/>
</linearGradient>
<linearGradient id="paint5_linear_92_3" x1="54.7662" y1="69.4773" x2="90.0966" y2="118.071" gradientUnits="userSpaceOnUse">
<stop offset="0.01"/>
<stop offset="0.13" stop-opacity="0.69"/>
<stop offset="0.25" stop-opacity="0.32"/>
<stop offset="1" stop-opacity="0"/>
</linearGradient>
<linearGradient id="paint6_linear_92_3" x1="66.3557" y1="67.0339" x2="70.9826" y2="104.806" gradientUnits="userSpaceOnUse">
<stop offset="0.01"/>
<stop offset="0.13" stop-opacity="0.69"/>
<stop offset="0.25" stop-opacity="0.32"/>
<stop offset="1" stop-opacity="0"/>
</linearGradient>
<clipPath id="clip0_92_3">
<rect width="255" height="156" fill="white"/>
</clipPath>
</defs>
</svg>
