<svg width="85" height="87" viewBox="0 0 85 87" fill="none" xmlns="http://www.w3.org/2000/svg">
<path d="M19.4597 75.4764C19.4597 75.4764 20.7665 64.0956 21.5176 61.6093C22.2687 59.1229 22.0561 35.3031 22.0801 35.0614C22.1041 34.8197 10.0139 41.2534 8.95749 43.1686C7.9011 45.0837 10.6518 57.574 9.88012 59.3793C9.10841 61.1845 6.59433 69.094 6.59433 69.094L19.4597 75.4764Z" fill="white"/>
<path d="M19.4597 75.6595C19.4348 75.6587 19.4103 75.6524 19.3877 75.6412L6.51886 69.2587C6.47986 69.2409 6.44864 69.2079 6.43146 69.1665C6.41428 69.125 6.41243 69.0782 6.42626 69.0354C6.52915 68.7095 8.95749 61.093 9.72234 59.3024C10.0653 58.5077 9.64003 55.2195 9.22845 52.041C8.73112 48.1632 8.19949 44.1536 8.80657 43.077C9.41366 42.0004 12.8915 39.851 15.7314 38.2068C16.6644 37.6686 21.7988 34.7758 22.1281 34.8819C22.166 34.8957 22.1984 34.9227 22.2202 34.9586C22.242 34.9945 22.2518 35.0371 22.2482 35.0797C22.2482 35.1346 22.2482 35.7791 22.2482 36.6652C22.2653 42.3227 22.3168 59.533 21.6719 61.6679C20.938 64.1066 19.6415 75.3849 19.614 75.4984C19.607 75.5421 19.5862 75.582 19.555 75.6113C19.5237 75.6406 19.4841 75.6576 19.4425 75.6595H19.4597ZM6.80354 68.9951L19.3191 75.2201C19.518 73.4991 20.6567 63.8686 21.3495 61.5727C21.7645 60.1958 21.9532 51.8213 21.9086 36.6726C21.9086 35.9402 21.9086 35.5301 21.9086 35.3067C20.3172 35.9805 10.0447 41.5574 9.10497 43.2674C8.57334 44.2341 9.10497 48.3573 9.57486 51.9934C10.0276 55.5197 10.4186 58.5846 10.0379 59.4598C9.33477 61.0893 7.17054 67.8782 6.80354 68.9951Z" fill="#231F20"/>
<path d="M19.2676 85.4694L21.3358 70.7491L7.27001 63.3157L0.163357 84.7261L19.2676 85.4694Z" fill="#231F20"/>
<path d="M19.2676 85.6525L0.166782 84.9202C0.139812 84.92 0.113267 84.913 0.0893882 84.8996C0.0655094 84.8862 0.0449982 84.8669 0.0295872 84.8433C0.0147104 84.8193 0.00512877 84.7919 0.00156426 84.7634C-0.00200024 84.7349 0.000546062 84.7058 0.00900897 84.6785L7.1088 63.2571C7.11775 63.2331 7.13119 63.2113 7.14828 63.193C7.16538 63.1748 7.18577 63.1604 7.20823 63.1508C7.23069 63.1412 7.25474 63.1366 7.27892 63.1372C7.3031 63.1379 7.3269 63.1438 7.34889 63.1545L21.4113 70.588C21.4445 70.6042 21.4719 70.6316 21.4892 70.666C21.5065 70.7003 21.5129 70.7398 21.5073 70.7784L19.4494 85.4987C19.4419 85.5436 19.4193 85.5841 19.3858 85.6124C19.3523 85.6408 19.3103 85.655 19.2676 85.6525ZM0.40344 84.554L19.1201 85.2863L21.1472 70.8589L7.36947 63.572L0.40344 84.554Z" fill="#231F20"/>
<path d="M64.6102 6.61301H21.6136C20.4013 6.61301 19.4185 7.66225 19.4185 8.95655V69.7311C19.4185 71.0254 20.4013 72.0746 21.6136 72.0746H64.6102C65.8226 72.0746 66.8053 71.0254 66.8053 69.7311V8.95655C66.8053 7.66225 65.8226 6.61301 64.6102 6.61301Z" fill="white"/>
<path d="M64.6102 72.2614H21.6102C20.9834 72.2594 20.3829 71.9925 19.94 71.519C19.4971 71.0455 19.2479 70.4039 19.247 69.7348V8.94922C19.2479 8.28005 19.4971 7.63851 19.94 7.16499C20.3829 6.69147 20.9834 6.42453 21.6102 6.4226H64.6102C65.2376 6.42356 65.839 6.69007 66.2827 7.1637C66.7263 7.63732 66.9759 8.27942 66.9768 8.94922V69.7348C66.9759 70.4046 66.7263 71.0467 66.2827 71.5203C65.839 71.9939 65.2376 72.2604 64.6102 72.2614ZM21.6102 6.7961C21.0741 6.79707 20.5603 7.02511 20.1815 7.43017C19.8028 7.83523 19.59 8.38419 19.59 8.95655V69.7421C19.59 70.3144 19.8028 70.8634 20.1815 71.2685C20.5603 71.6735 21.0741 71.9016 21.6102 71.9025H64.6102C65.1467 71.9016 65.6608 71.6736 66.0401 71.2687C66.4195 70.8637 66.6329 70.3148 66.6338 69.7421V8.95655C66.6329 8.38386 66.4195 7.8349 66.0401 7.42995C65.6608 7.02499 65.1467 6.79707 64.6102 6.7961H21.6102Z" fill="#231F20"/>
<path d="M63.9003 10.6263H22.3202V68.0687H63.9003V10.6263Z" fill="white"/>
<path d="M63.9003 68.2517H22.3202C22.2747 68.2517 22.2311 68.2325 22.1989 68.1981C22.1668 68.1638 22.1487 68.1172 22.1487 68.0687V10.6263C22.1487 10.5778 22.1668 10.5312 22.1989 10.4969C22.2311 10.4625 22.2747 10.4432 22.3202 10.4432H63.9003C63.9457 10.4432 63.9894 10.4625 64.0215 10.4969C64.0537 10.5312 64.0717 10.5778 64.0717 10.6263V68.0687C64.0717 68.1172 64.0537 68.1638 64.0215 68.1981C63.9894 68.2325 63.9457 68.2517 63.9003 68.2517ZM22.4917 67.8856H63.7288V10.8094H22.4917V67.8856Z" fill="#231F20"/>
<path d="M53.9777 4.30243H47.9858C47.7659 3.09121 47.1581 1.99942 46.2666 1.21439C45.3751 0.429349 44.2555 0 43.0999 0C41.9443 0 40.8247 0.429349 39.9333 1.21439C39.0418 1.99942 38.434 3.09121 38.2141 4.30243H32.2462C31.8656 4.30242 31.5006 4.46357 31.2312 4.75051C30.9618 5.03746 30.81 5.42677 30.8091 5.83305V11.1683C30.81 11.5745 30.9618 11.9639 31.2312 12.2508C31.5006 12.5377 31.8656 12.6989 32.2462 12.6989H53.9777C54.3579 12.6989 54.7226 12.5376 54.9915 12.2506C55.2603 11.9635 55.4114 11.5742 55.4114 11.1683V5.82939C55.4105 5.42408 55.259 5.0357 54.9903 4.74944C54.7215 4.46318 54.3573 4.30242 53.9777 4.30243ZM43.1119 4.99816C42.8594 4.99889 42.6124 4.91961 42.4022 4.77038C42.1919 4.62114 42.0278 4.40865 41.9307 4.15981C41.8336 3.91097 41.8079 3.63696 41.8567 3.37249C41.9055 3.10801 42.0268 2.86495 42.2051 2.67408C42.3834 2.48321 42.6107 2.35311 42.8583 2.30025C43.1059 2.24739 43.3626 2.27415 43.596 2.37714C43.8293 2.48014 44.0288 2.65473 44.1691 2.87882C44.3095 3.1029 44.3844 3.36641 44.3844 3.63598C44.3835 3.99633 44.2493 4.34169 44.0109 4.59684C43.7726 4.85198 43.4494 4.99623 43.1119 4.99816Z" fill="white"/>
<path d="M38.341 29.0048H28.2984C28.2566 29.0048 28.2164 28.987 28.1869 28.9555C28.1573 28.9239 28.1406 28.881 28.1406 28.8364V17.3786C28.1406 17.334 28.1573 17.2911 28.1869 17.2595C28.2164 17.2279 28.2566 17.2102 28.2984 17.2102H38.341C38.3826 17.2111 38.4222 17.2292 38.4516 17.2606C38.481 17.292 38.4979 17.3343 38.4988 17.3786V28.8364C38.4979 28.8807 38.481 28.923 38.4516 28.9544C38.4222 28.9858 38.3826 29.0039 38.341 29.0048ZM28.4562 28.6642H38.1832V17.5471H28.4562V28.6642Z" fill="#D1D3D4"/>
<path d="M40.6939 20.1799C40.6412 20.2748 40.5803 20.3643 40.5121 20.4472L34.0228 27.3716C33.99 27.4268 33.9447 27.4723 33.891 27.5038C33.8373 27.5353 33.7771 27.5518 33.7159 27.5518C33.6546 27.5518 33.5944 27.5353 33.5407 27.5038C33.487 27.4723 33.4417 27.4268 33.4089 27.3716L29.7595 23.3437C29.7102 23.3092 29.6699 23.2617 29.6428 23.2058C29.6156 23.1498 29.6024 23.0874 29.6045 23.0244C29.6066 22.9614 29.6238 22.9001 29.6546 22.8464C29.6854 22.7926 29.7286 22.7482 29.7801 22.7175L30.6959 21.8387C30.7278 21.7925 30.7694 21.755 30.8173 21.7291C30.8653 21.7032 30.9183 21.6898 30.972 21.6898C31.0257 21.6898 31.0787 21.7032 31.1267 21.7291C31.1746 21.755 31.2162 21.7925 31.2481 21.8387C31.9638 22.6223 32.6829 23.4047 33.4055 24.1859C33.4387 24.2411 33.4844 24.2865 33.5383 24.3179C33.5922 24.3493 33.6527 24.3658 33.7141 24.3658C33.7756 24.3658 33.8361 24.3493 33.89 24.3179C33.9439 24.2865 33.9896 24.2411 34.0228 24.1859L39.0681 18.8434C39.1014 18.7905 39.1463 18.7472 39.199 18.7172C39.2516 18.6873 39.3103 18.6716 39.37 18.6716C39.4296 18.6716 39.4883 18.6873 39.541 18.7172C39.5936 18.7472 39.6385 18.7905 39.6718 18.8434C39.9565 19.1509 40.2412 19.4549 40.5224 19.7625C40.5856 19.844 40.644 19.9296 40.6973 20.0188L40.6939 20.1799Z" fill="white"/>
<path d="M58.68 21.4762H44.2575C44.2192 21.4702 44.1843 21.4497 44.159 21.4184C44.1337 21.3871 44.1198 21.3472 44.1198 21.3059C44.1198 21.2646 44.1337 21.2247 44.159 21.1934C44.1843 21.1621 44.2192 21.1416 44.2575 21.1356H58.68C58.7183 21.1416 58.7533 21.1621 58.7786 21.1934C58.8039 21.2247 58.8178 21.2646 58.8178 21.3059C58.8178 21.3472 58.8039 21.3871 58.7786 21.4184C58.7533 21.4497 58.7183 21.4702 58.68 21.4762Z" fill="#D1D3D4"/>
<path d="M54.8454 25.0757H44.2575C44.2157 25.0757 44.1755 25.058 44.1459 25.0264C44.1164 24.9948 44.0997 24.9519 44.0997 24.9073C44.0997 24.8626 44.1164 24.8197 44.1459 24.7882C44.1755 24.7566 44.2157 24.7388 44.2575 24.7388H54.8454C54.8873 24.7388 54.9274 24.7566 54.957 24.7882C54.9866 24.8197 55.0032 24.8626 55.0032 24.9073C55.0032 24.9519 54.9866 24.9948 54.957 25.0264C54.9274 25.058 54.8873 25.0757 54.8454 25.0757Z" fill="#D1D3D4"/>
<path d="M38.341 44.6479H28.2984C28.2776 44.6484 28.2568 44.6444 28.2375 44.6361C28.2181 44.6278 28.2006 44.6154 28.1858 44.5997C28.1711 44.5839 28.1595 44.5652 28.1517 44.5445C28.1439 44.5239 28.1402 44.5017 28.1406 44.4795V33.0254C28.1406 32.9808 28.1573 32.9379 28.1869 32.9063C28.2164 32.8747 28.2566 32.857 28.2984 32.857H38.341C38.3826 32.8579 38.4222 32.876 38.4516 32.9074C38.481 32.9387 38.4979 32.981 38.4988 33.0254V44.4795C38.4988 44.5241 38.4822 44.567 38.4526 44.5986C38.423 44.6302 38.3829 44.6479 38.341 44.6479ZM28.4562 44.311H38.1832V33.1939H28.4562V44.311Z" fill="#D1D3D4"/>
<path d="M40.6939 35.8267C40.6412 35.9216 40.5803 36.0111 40.5121 36.094L34.0228 43.0111C33.99 43.0663 33.9447 43.1118 33.891 43.1433C33.8373 43.1748 33.7771 43.1913 33.7159 43.1913C33.6546 43.1913 33.5944 43.1748 33.5407 43.1433C33.487 43.1118 33.4417 43.0663 33.4089 43.0111L29.7595 38.9831C29.7102 38.9487 29.6699 38.9011 29.6428 38.8452C29.6156 38.7893 29.6024 38.7268 29.6045 38.6639C29.6066 38.6009 29.6238 38.5396 29.6546 38.4858C29.6854 38.4321 29.7286 38.3877 29.7801 38.357L30.6959 37.4782C30.7278 37.432 30.7694 37.3944 30.8173 37.3686C30.8653 37.3427 30.9183 37.3292 30.972 37.3292C31.0257 37.3292 31.0787 37.3427 31.1267 37.3686C31.1746 37.3944 31.2162 37.432 31.2481 37.4782C31.9638 38.2618 32.6829 39.0442 33.4055 39.8253C33.4387 39.8805 33.4844 39.9259 33.5383 39.9573C33.5922 39.9888 33.6527 40.0053 33.7141 40.0053C33.7756 40.0053 33.8361 39.9888 33.89 39.9573C33.9439 39.9259 33.9896 39.8805 34.0228 39.8253L39.0681 34.4901C39.1014 34.4373 39.1463 34.394 39.199 34.364C39.2516 34.334 39.3103 34.3184 39.37 34.3184C39.4296 34.3184 39.4883 34.334 39.541 34.364C39.5936 34.394 39.6385 34.4373 39.6718 34.4901C39.9565 34.7941 40.2412 35.098 40.5224 35.4092C40.5856 35.4907 40.644 35.5764 40.6973 35.6656L40.6939 35.8267Z" fill="white"/>
<path d="M58.68 37.123H44.2575C44.2192 37.1169 44.1843 37.0964 44.159 37.0652C44.1337 37.0339 44.1198 36.994 44.1198 36.9527C44.1198 36.9114 44.1337 36.8714 44.159 36.8402C44.1843 36.8089 44.2192 36.7884 44.2575 36.7824H58.68C58.7183 36.7884 58.7533 36.8089 58.7786 36.8402C58.8039 36.8714 58.8178 36.9114 58.8178 36.9527C58.8178 36.994 58.8039 37.0339 58.7786 37.0652C58.7533 37.0964 58.7183 37.1169 58.68 37.123Z" fill="#D1D3D4"/>
<path d="M54.8454 40.7225H44.2575C44.2157 40.7225 44.1755 40.7047 44.1459 40.6732C44.1164 40.6416 44.0997 40.5987 44.0997 40.554C44.0997 40.5094 44.1164 40.4665 44.1459 40.4349C44.1755 40.4033 44.2157 40.3856 44.2575 40.3856H54.8454C54.8873 40.3856 54.9274 40.4033 54.957 40.4349C54.9866 40.4665 55.0032 40.5094 55.0032 40.554C55.0032 40.5987 54.9866 40.6416 54.957 40.6732C54.9274 40.7047 54.8873 40.7225 54.8454 40.7225Z" fill="#D1D3D4"/>
<path d="M38.341 60.2288H28.2984C28.2566 60.2288 28.2164 60.211 28.1869 60.1795C28.1573 60.1479 28.1406 60.105 28.1406 60.0603V48.61C28.1406 48.5653 28.1573 48.5224 28.1869 48.4909C28.2164 48.4593 28.2566 48.4415 28.2984 48.4415H38.341C38.3826 48.4424 38.4222 48.4605 38.4516 48.4919C38.481 48.5233 38.4979 48.5656 38.4988 48.61V60.0677C38.4962 60.1108 38.4786 60.1512 38.4493 60.1811C38.4201 60.2109 38.3814 60.228 38.341 60.2288ZM28.4562 59.8919H38.1832V48.7711H28.4562V59.8919Z" fill="#D1D3D4"/>
<path d="M40.6939 51.4039C40.6412 51.4988 40.5803 51.5883 40.5121 51.6712L34.0228 58.5883C33.7999 58.8263 33.6284 58.83 33.4089 58.5883C32.1902 57.2481 30.9737 55.9054 29.7595 54.5603C29.7102 54.5259 29.6699 54.4784 29.6428 54.4224C29.6156 54.3665 29.6024 54.304 29.6045 54.2411C29.6066 54.1781 29.6238 54.1168 29.6546 54.063C29.6854 54.0093 29.7286 53.9649 29.7801 53.9342L30.6959 53.0554C30.7278 53.0092 30.7694 52.9716 30.8173 52.9458C30.8653 52.9199 30.9183 52.9064 30.972 52.9064C31.0257 52.9064 31.0787 52.9199 31.1267 52.9458C31.1746 52.9716 31.2162 53.0092 31.2481 53.0554L33.4055 55.4062C33.4387 55.4614 33.4844 55.5068 33.5383 55.5382C33.5922 55.5696 33.6527 55.5861 33.7141 55.5861C33.7756 55.5861 33.8361 55.5696 33.89 55.5382C33.9439 55.5068 33.9896 55.4614 34.0228 55.4062L39.0681 50.0747C39.1014 50.0218 39.1463 49.9785 39.199 49.9485C39.2516 49.9186 39.3103 49.9029 39.37 49.9029C39.4296 49.9029 39.4883 49.9186 39.541 49.9485C39.5936 49.9785 39.6385 50.0218 39.6718 50.0747C39.9565 50.3823 40.2412 50.6862 40.5224 50.9938C40.5856 51.0753 40.644 51.1609 40.6973 51.2501L40.6939 51.4039Z" fill="white"/>
<path d="M58.68 52.7002H44.2575C44.2159 52.6992 44.1763 52.6812 44.1469 52.6498C44.1175 52.6184 44.1006 52.5761 44.0997 52.5317C44.0997 52.4871 44.1164 52.4442 44.1459 52.4126C44.1755 52.381 44.2157 52.3633 44.2575 52.3633H58.68C58.7219 52.3633 58.762 52.381 58.7916 52.4126C58.8212 52.4442 58.8378 52.4871 58.8378 52.5317C58.8369 52.5761 58.82 52.6184 58.7906 52.6498C58.7612 52.6812 58.7216 52.6992 58.68 52.7002Z" fill="#D1D3D4"/>
<path d="M54.8454 56.2997H44.2575C44.2157 56.2997 44.1755 56.282 44.1459 56.2504C44.1164 56.2188 44.0997 56.1759 44.0997 56.1313C44.1006 56.0869 44.1175 56.0446 44.1469 56.0132C44.1763 55.9818 44.2159 55.9638 44.2575 55.9628H54.8454C54.887 55.9638 54.9266 55.9818 54.956 56.0132C54.9854 56.0446 55.0023 56.0869 55.0032 56.1313C55.0032 56.1759 54.9866 56.2188 54.957 56.2504C54.9274 56.282 54.8873 56.2997 54.8454 56.2997Z" fill="#D1D3D4"/>
<path d="M12.8435 46.3726C15.3713 43.4432 18.3827 41.0008 21.5313 38.8513C22.3099 38.3167 23.1502 37.7821 24.0763 37.7528C25.0023 37.7235 26.0107 38.4266 26.0381 39.4152C26.0587 40.1915 25.5099 40.836 25.0092 41.3853L18.2764 48.61C19.0913 50.2585 19.4351 52.1262 19.265 53.9813C19.0948 55.8365 18.4184 57.5975 17.3195 59.046" fill="white"/>
<path d="M17.3195 59.2291C17.2795 59.2304 17.2405 59.216 17.2097 59.1888C17.1752 59.1569 17.1537 59.1119 17.1498 59.0633C17.146 59.0147 17.1601 58.9665 17.1891 58.9289C18.2613 57.506 18.921 55.78 19.0873 53.9625C19.2537 52.1451 18.9194 50.3153 18.1255 48.6978C18.1082 48.6631 18.1018 48.6233 18.1074 48.5844C18.113 48.5454 18.1301 48.5095 18.1563 48.4818L24.8754 41.2754C25.3865 40.7261 25.8872 40.1329 25.8667 39.4445C25.8426 38.5474 24.8994 37.9395 24.0797 37.9798C23.26 38.0201 22.4231 38.4925 21.6239 39.0417C17.9643 41.5391 15.2135 43.9192 12.9704 46.5337C12.9395 46.5697 12.8965 46.591 12.8508 46.5931C12.8051 46.5951 12.7606 46.5777 12.7269 46.5447C12.6932 46.5117 12.6732 46.4658 12.6713 46.417C12.6694 46.3682 12.6857 46.3207 12.7166 46.2847C14.9803 43.6482 17.7516 41.2498 21.4387 38.7305C22.2825 38.1556 23.1193 37.6319 24.0728 37.6319C25.0263 37.6319 26.1788 38.3643 26.2096 39.4628C26.2336 40.2977 25.6849 40.9605 25.1189 41.5647L18.489 48.6319C19.2986 50.3018 19.6325 52.1882 19.4496 54.0583C19.2668 55.9284 18.5752 57.7005 17.4601 59.1559C17.4434 59.1787 17.4221 59.1972 17.3977 59.2098C17.3733 59.2225 17.3466 59.2291 17.3195 59.2291Z" fill="#231F20"/>
<path d="M71.6963 68.043L63.3926 74.3925L47.8691 53.9049C47.8931 52.8064 47.1832 47.9838 48.7163 48.7784C50.2495 49.573 55.967 56.5304 56.9102 56.7574C57.8534 56.9844 60.0382 55.842 59.709 53.59C59.3797 51.338 58.9818 47.548 56.9171 47.3906C53.7856 47.1526 50.8737 49.3716 49.6355 48.8553C48.3973 48.339 47.3752 46.585 49.3954 45.2887C51.7071 43.824 56.6838 42.8719 60.6728 43.3333C64.6617 43.7947 67.6868 52.3633 67.9681 58.6396C69.0176 62.6309 71.0446 66.2671 71.6963 68.043Z" fill="white"/>
<path d="M63.3926 74.5756C63.3668 74.5758 63.3413 74.5696 63.3181 74.5575C63.295 74.5454 63.2747 74.5278 63.2589 74.5061L47.7388 54.0221C47.7118 53.9884 47.6972 53.9455 47.6976 53.9012C47.6976 53.6815 47.6771 53.297 47.6462 52.854C47.5124 50.8766 47.4438 49.0677 48.0749 48.6063C48.1824 48.5364 48.3058 48.4995 48.4316 48.4995C48.5575 48.4995 48.6809 48.5364 48.7883 48.6063C49.6046 49.0201 51.4773 51.0341 53.2917 52.9821C54.8146 54.6189 56.5398 56.4718 56.9479 56.5743C57.3561 56.6769 58.2136 56.4279 58.8241 55.82C59.1078 55.5484 59.3224 55.2044 59.4478 54.8201C59.5732 54.4359 59.6052 54.024 59.5409 53.6229L59.4757 53.1762C59.1671 51.0048 58.7006 47.7201 56.9068 47.581C55.2296 47.4528 53.5901 48.0534 52.2765 48.5367C51.1138 48.9615 50.198 49.2984 49.5738 49.0457C49.1904 48.9033 48.8499 48.6534 48.588 48.3223C48.3261 47.9912 48.1525 47.591 48.0852 47.1636C48.0406 46.6326 48.2156 45.849 49.3062 45.1496C51.7071 43.608 56.8176 42.7218 60.6899 43.1686C64.8915 43.6592 67.8549 52.4951 68.1396 58.6286C68.8564 61.3456 70.0363 63.9235 70.9006 65.8057C71.3019 66.6772 71.6483 67.4315 71.8541 68.0027C71.8674 68.0401 71.8689 68.0811 71.8584 68.1194C71.8479 68.1578 71.8259 68.1914 71.7958 68.2151L63.4921 74.5683C63.4604 74.5812 63.4257 74.5838 63.3926 74.5756ZM48.0441 53.8426L63.4201 74.1435L71.4837 67.9771C71.2779 67.4425 70.9555 66.7431 70.5885 65.9448C69.7173 64.0444 68.5306 61.4408 67.8 58.6872C67.7984 58.6738 67.7984 58.6603 67.8 58.6469C67.5359 52.788 64.624 43.9741 60.659 43.5128C56.8451 43.0697 51.834 43.9339 49.488 45.4389C48.7437 45.9185 48.3802 46.4934 48.4316 47.1086C48.4916 47.4684 48.6411 47.8043 48.8643 48.0813C49.0876 48.3583 49.3764 48.5662 49.7007 48.6832C50.2049 48.8846 51.1138 48.555 52.1667 48.1669C53.5147 47.6762 55.185 47.0684 56.9342 47.1929C58.9921 47.354 59.4929 50.8107 59.8187 53.0993L59.8839 53.546C59.9574 54.0082 59.9205 54.4828 59.7766 54.9257C59.6328 55.3686 59.3865 55.7656 59.0607 56.08C58.4296 56.7098 57.4899 57.0723 56.8759 56.9222C56.3923 56.805 55.1061 55.4575 53.0516 53.2348C51.3367 51.4039 49.4057 49.3167 48.6477 48.9285C48.4076 48.8077 48.3047 48.8846 48.2704 48.9102C47.7491 49.2764 47.9069 51.5906 47.9926 52.8247C48.0166 53.2568 48.0406 53.6046 48.0441 53.8426Z" fill="#231F20"/>
<path d="M42.6935 50.082L43.0468 53.0737L40.0868 52.4841L38.5091 52.1692L39.9633 51.4442L42.6935 50.082Z" fill="white"/>
<path d="M43.0468 53.2568H43.0159L38.4782 52.3523C38.4425 52.3454 38.4098 52.3263 38.3851 52.2979C38.3603 52.2696 38.3449 52.2334 38.341 52.1948C38.336 52.1563 38.3426 52.1171 38.3599 52.0829C38.3771 52.0486 38.4042 52.0212 38.437 52.0044L42.618 49.9209C42.6424 49.9074 42.6695 49.9004 42.6969 49.9004C42.7244 49.9004 42.7514 49.9074 42.7758 49.9209C42.7992 49.9354 42.8191 49.9555 42.834 49.9797C42.8489 50.0038 42.8583 50.0313 42.8615 50.06L43.2045 53.0517C43.2064 53.0773 43.2034 53.103 43.1957 53.1274C43.188 53.1517 43.1758 53.1741 43.1598 53.1933C43.1437 53.2124 43.1243 53.2279 43.1025 53.2389C43.0807 53.2498 43.0571 53.2559 43.033 53.2568H43.0468ZM39.0681 52.0923L42.841 52.8466L42.546 50.353L39.0681 52.0923Z" fill="#231F20"/>
<path d="M64.792 50.1296L43.0433 53.059C42.8157 52.6018 42.6626 52.1064 42.5906 51.5943C42.5411 51.0806 42.5748 50.5616 42.6901 50.06L64.4353 47.1306L64.792 50.1296Z" fill="white"/>
<path d="M43.0468 53.2568C43.0168 53.2566 42.9875 53.248 42.9616 53.232C42.9357 53.2159 42.9142 53.1929 42.8993 53.1652C42.659 52.6897 42.4988 52.1729 42.426 51.6383C42.3731 51.1027 42.4068 50.5614 42.5254 50.0381C42.5336 50.0025 42.5518 49.9704 42.5776 49.9462C42.6033 49.922 42.6354 49.9067 42.6695 49.9026L64.4182 46.9548C64.4634 46.9506 64.5084 46.9648 64.5441 46.9948C64.5798 47.0247 64.6034 47.068 64.6102 47.116L64.9532 50.1076C64.957 50.1315 64.9558 50.156 64.9499 50.1794C64.944 50.2027 64.9334 50.2245 64.9189 50.2431C64.9052 50.2617 64.8881 50.2771 64.8686 50.2884C64.8492 50.2997 64.8278 50.3067 64.8057 50.309L43.0605 53.2568H43.0468ZM42.8341 50.2504C42.7448 50.6917 42.7217 51.1453 42.7655 51.5943C42.8271 52.0406 42.9556 52.4733 43.1462 52.8759L64.6034 49.9685L64.2913 47.343L42.8341 50.2504Z" fill="#231F20"/>
<path d="M68.2747 49.6612L64.7973 50.1322L64.4421 47.1425L67.9195 46.6715C68.1252 46.6437 68.3329 46.7042 68.4969 46.8398C68.6608 46.9754 68.7676 47.175 68.7937 47.3947L68.9521 48.7279C68.9782 48.9476 68.9215 49.1693 68.7945 49.3443C68.6675 49.5194 68.4805 49.6333 68.2747 49.6612Z" fill="white"/>
<path d="M64.792 50.3127C64.7501 50.3122 64.7097 50.2957 64.6782 50.2661C64.6468 50.2366 64.6263 50.1959 64.6205 50.1516L64.2775 47.1599C64.2746 47.136 64.2762 47.1118 64.2821 47.0885C64.2879 47.0653 64.2981 47.0435 64.3118 47.0244C64.3402 46.9871 64.3805 46.9623 64.425 46.9548L67.9029 46.4861C68.1538 46.4529 68.4069 46.5271 68.6067 46.6925C68.8066 46.8578 68.9371 47.1009 68.9696 47.3686L69.1274 48.7015C69.1585 48.9694 69.089 49.2396 68.9341 49.453C68.7792 49.6663 68.5515 49.8056 68.3008 49.8403L64.8229 50.309L64.792 50.3127ZM64.6274 47.2954L64.9395 49.9245L68.2493 49.4778C68.4097 49.4541 68.555 49.364 68.6538 49.227C68.7526 49.09 68.797 48.9171 68.7775 48.7454L68.6197 47.4126C68.6096 47.3273 68.5838 47.2451 68.5437 47.1706C68.5037 47.0961 68.4503 47.0307 68.3866 46.9783C68.3228 46.9259 68.25 46.8875 68.1723 46.8652C68.0946 46.843 68.0135 46.8373 67.9338 46.8486L64.6274 47.2954Z" fill="#231F20"/>
<path d="M65.5817 46.9831L65.1836 47.037L65.5389 50.0267L65.937 49.9728L65.5817 46.9831Z" fill="#231F20"/>
<path d="M66.3724 46.8775L65.9743 46.9314L66.3295 49.9211L66.7276 49.8672L66.3724 46.8775Z" fill="#231F20"/>
<path d="M39.9633 51.4442L40.0868 52.4841L38.5091 52.1692L39.9633 51.4442Z" fill="white"/>
<path d="M40.0971 52.6672H40.0628L38.4885 52.3523C38.4528 52.3454 38.4201 52.3263 38.3954 52.2979C38.3706 52.2696 38.3552 52.2334 38.3513 52.1948C38.3463 52.1563 38.3529 52.1171 38.3702 52.0829C38.3874 52.0486 38.4145 52.0212 38.4473 52.0044L39.8982 51.2721C39.9225 51.2586 39.9496 51.2516 39.9771 51.2516C40.0045 51.2516 40.0316 51.2586 40.0559 51.2721C40.0793 51.2866 40.0993 51.3067 40.1141 51.3309C40.129 51.355 40.1385 51.3825 40.1417 51.4112L40.2652 52.4475C40.2686 52.4733 40.2668 52.4996 40.2599 52.5246C40.2531 52.5496 40.2413 52.5727 40.2254 52.5925C40.2095 52.6123 40.1898 52.6282 40.1677 52.6392C40.1456 52.6501 40.1215 52.656 40.0971 52.6562V52.6672ZM39.0681 52.0923L39.8879 52.2571L39.8261 51.7151L39.0681 52.0923Z" fill="#231F20"/>
<path d="M48.6511 54.9375C48.6511 54.9375 46.5041 52.0923 45.8764 51.0414C44.8474 49.3277 47.3752 47.8117 48.2773 48.5294C48.9255 49.0384 52.2662 52.1912 52.9384 52.8686" fill="white"/>
<path d="M48.6512 55.1206C48.6253 55.1207 48.5999 55.1146 48.5767 55.1025C48.5535 55.0904 48.5332 55.0728 48.5174 55.051C48.4316 54.9375 46.36 52.1875 45.7323 51.1366C45.5169 50.7855 45.4326 50.3609 45.4961 49.9467C45.5596 49.5324 45.7663 49.1587 46.0753 48.8992C46.7099 48.2658 47.7903 47.9069 48.4076 48.3829C49.025 48.859 52.4034 52.0447 53.0825 52.7368C53.099 52.7534 53.1122 52.7733 53.1214 52.7953C53.1307 52.8173 53.1357 52.8411 53.1364 52.8653C53.137 52.8894 53.1332 52.9134 53.1251 52.936C53.1171 52.9586 53.1049 52.9792 53.0894 52.9968C53.0738 53.0143 53.0552 53.0284 53.0346 53.0383C53.0139 53.0482 52.9917 53.0536 52.969 53.0543C52.9464 53.055 52.9239 53.0509 52.9028 53.0423C52.8816 53.0337 52.8623 53.0207 52.8459 53.0041C52.1599 52.3157 48.8398 49.1775 48.2018 48.6795C47.7903 48.3573 46.8882 48.588 46.3086 49.1666C46.0652 49.3739 45.9024 49.6702 45.8517 49.9982C45.8011 50.3263 45.8661 50.6627 46.0342 50.9425C46.6515 51.9751 48.7781 54.7947 48.7986 54.824C48.8131 54.8424 48.8241 54.8636 48.8307 54.8866C48.8374 54.9095 48.8397 54.9337 48.8374 54.9576C48.8352 54.9815 48.8285 55.0047 48.8177 55.0258C48.8069 55.0468 48.7923 55.0654 48.7746 55.0803C48.7577 55.0956 48.738 55.107 48.7167 55.1139C48.6955 55.1208 48.6732 55.1231 48.6512 55.1206Z" fill="#231F20"/>
<path d="M70.1837 61.1442L58.4365 70.6612L63.9003 86.2384L84.8326 85.1435L70.1837 61.1442Z" fill="#231F20"/>
<path d="M63.9003 86.4215C63.8654 86.4218 63.8313 86.4107 63.8025 86.3897C63.7737 86.3688 63.7516 86.339 63.7391 86.3043L58.2753 70.7271C58.2619 70.6907 58.26 70.6506 58.2699 70.6129C58.2798 70.5752 58.301 70.542 58.3302 70.5184L70.0774 60.9978C70.0962 60.9823 70.1179 60.9714 70.1409 60.9657C70.164 60.96 70.188 60.9597 70.2112 60.9648C70.2343 60.9691 70.2563 60.9784 70.2758 60.9923C70.2952 61.0062 70.3118 61.0243 70.3244 61.0454L84.9698 85.0447C84.9872 85.0713 84.9975 85.1024 84.9996 85.1347C85.0017 85.1671 84.9956 85.1994 84.9819 85.2283C84.9682 85.2572 84.9474 85.2816 84.9217 85.299C84.896 85.3163 84.8664 85.3258 84.8361 85.3266L63.914 86.4251L63.9003 86.4215ZM58.6423 70.7271L64.0169 86.0517L84.524 84.9788L70.1392 61.4262L58.6423 70.7271Z" fill="#231F20"/>
</svg>
